# xmcd
#
# Track frame offsets:
#	150
#	13730
#	28194
#	46445
#	61072
#	78622
#	93950
#	109927
#	125685
#	140162
#	156012
#	174435
#
# Disc length: 2496 seconds
#
# Revision: 1
# Processed by: cddbd v1.5.2PL0 Copyright (c) Steve Scherf et al.
# Submitted via: audiograbber 1.83.01
#
DISCID=a109be0c
DTITLE=Jamppa Tuominen - Onnenpoika
DYEAR=2013
DGENRE=Pop
TTITLE0=Enemm‰n Kuin Nainen
TTITLE1=Onnenpoika
TTITLE2=Kuiskaa Sanat Nuo
TTITLE3=Vie‰ Palaan
TTITLE4=Kulkurin Kutsu
TTITLE5=J‰‰hyv‰iset Kotiseudulle
TTITLE6=Liian Pitk‰ Matka Kotiin
TTITLE7=L‰heisyys Riitt‰‰
TTITLE8=Anna-Liisa
TTITLE9=H‰n
TTITLE10=On Aika Toukokuun
TTITLE11=Tule Kotiin
EXTD=TR.
EXTT0=
EXTT1=
EXTT2=
EXTT3=
EXTT4=
EXTT5=
EXTT6=
EXTT7=
EXTT8=
EXTT9=
EXTT10=
EXTT11=
PLAYORDER=
